<svg xmlns="http://www.w3.org/2000/svg" viewBox="0 0 64 64"><path fill="#FAFAFA" d="M32 5.8c-7 0-13.6 2.7-18.5 7.7S5.8 25 5.8 32s2.7 13.6 7.7 18.5S25 58.2 32 58.2s13.6-2.7 18.5-7.7S58.2 39 58.2 32s-2.7-13.6-7.7-18.5S39 5.8 32 5.8z"/><path fill="#444" d="M27.2 38.3l-2 1.2c-.2.1-.2.3-.1.5l.5.9c.1.1 0 .3-.1.3h-5c-.2 0-.2-.1-.1-.3l2.5-4.3c.1-.1.2-.1.3 0l.5.9c.1.2.3.2.5.1l2-1.2c.2-.1.2-.3.1-.5l-3-5.1c-.2-.3-.4-.3-.6 0l-4.2 7.3-3.1 5.4c-.2.3 0 .5.3.5h14.7c.3 0 .5-.2.3-.5l-3-5.1c-.2-.1-.4-.2-.5-.1z"/><path fill="#ABCDEF" d="M38.1 26l-8.8 5c-.2.1-.4 0-.5-.1l-1.3-2.3c-.1-.1-.1-.2 0-.3l4.4-7.7 2.6 4.5c.1.2.3.2.5.1l2-1.2c.2-.1.2-.3.1-.5l-1.7-3-3.1-5.4c-.2-.3-.4-.3-.6 0l-7.6 13.1c-.1.1-.1.2 0 .3l3.7 6.4c.1.2.3.2.5.1l8.8-5.1c.2-.1.4 0 .5.1l6 10.4c.1.2 0 .5-.3.5H35c-.1 0-.2-.1-.3-.2l-2.9-5c-.1-.2-.3-.2-.5-.1l-2 1.2c-.2.1-.2.3-.1.5l3.7 6.4c.1.1.2.2.3.2h15.1c.3 0 .5-.2.3-.5l-10-17.2c-.1-.2-.3-.3-.5-.2z"/><path fill="#ABCDEF" d="M32 61.2c-3.9 0-7.8-.8-11.4-2.3-3.5-1.5-6.6-3.6-9.3-6.3-2.7-2.7-4.8-5.8-6.3-9.3-1.4-3.5-2.2-7.4-2.2-11.3s.8-7.8 2.3-11.4c1.5-3.5 3.6-6.6 6.3-9.3 2.7-2.7 5.8-4.8 9.3-6.3 3.6-1.5 7.4-2.3 11.4-2.3s7.8.8 11.4 2.3c3.5 1.5 6.6 3.6 9.3 6.3 2.7 2.7 4.8 5.8 6.3 9.3 1.5 3.6 2.3 7.4 2.3 11.4s-.8 7.8-2.3 11.4c-1.5 3.5-3.6 6.6-6.3 9.3-2.7 2.7-5.8 4.8-9.3 6.3-3.7 1.4-7.6 2.2-11.5 2.2zm0-55.4c-7 0-13.6 2.7-18.5 7.7S5.8 25 5.8 32s2.7 13.6 7.7 18.5S25 58.2 32 58.2s13.6-2.7 18.5-7.7S58.2 39 58.2 32s-2.7-13.6-7.7-18.5S39 5.8 32 5.8z"/></svg>